<svg xmlns="http://www.w3.org/2000/svg" width="390" height="720" viewBox="0 0 390 720" fill="none">
  <rect width="390" height="720" rx="32" fill="#030712"/>
  <rect x="0" y="0" width="390" height="88" fill="#030712" opacity="0.92"/>
  <rect x="20" y="20" width="48" height="48" rx="12" fill="#1f2937"/>
  <rect x="24" y="28" width="40" height="10" rx="4" fill="#8b5cf6"/>
  <rect x="24" y="42" width="28" height="10" rx="4" fill="#7c3aed" opacity="0.9"/>
  <rect x="24" y="56" width="34" height="8" rx="3" fill="#a78bfa" opacity="0.85"/>
  <text x="80" y="42" fill="#f9fafb" font-family="ui-sans-serif,system-ui,sans-serif" font-size="17" font-weight="600">AI Tools Tracker</text>
  <text x="80" y="60" fill="#6b7280" font-family="ui-monospace,Menlo,monospace" font-size="9" letter-spacing="0.15em">FROM REELS ’ YOUR STACK</text>
  <rect x="20" y="104" width="350" height="72" rx="16" fill="#0f172a" stroke="#1f2937"/>
  <text x="36" y="132" fill="#e5e7eb" font-family="ui-sans-serif,system-ui,sans-serif" font-size="14" font-weight="600">Your AI tool inbox</text>
  <text x="36" y="154" fill="#9ca3af" font-family="ui-sans-serif,system-ui,sans-serif" font-size="11">Filter by status and tags from processed Reels.</text>
  <rect x="20" y="192" width="350" height="36" rx="10" fill="#111827"/>
  <rect x="28" y="200" width="72" height="20" rx="6" fill="#4c1d95"/>
  <text x="40" y="214" fill="#e9d5ff" font-family="ui-sans-serif,system-ui,sans-serif" font-size="10" font-weight="600">To explore</text>
  <rect x="108" y="200" width="88" height="20" rx="6" fill="#1f2937"/>
  <text x="118" y="214" fill="#9ca3af" font-family="ui-sans-serif,system-ui,sans-serif" font-size="10">Implemented</text>
  <rect x="204" y="200" width="96" height="20" rx="6" fill="#1f2937"/>
  <text x="214" y="214" fill="#9ca3af" font-family="ui-sans-serif,system-ui,sans-serif" font-size="10">Not interested</text>
  <rect x="20" y="244" width="350" height="120" rx="16" fill="#0b1220" stroke="#1f2937"/>
  <text x="36" y="276" fill="#f3f4f6" font-family="ui-sans-serif,system-ui,sans-serif" font-size="15" font-weight="600">Example Tool</text>
  <text x="36" y="298" fill="#6b7280" font-family="ui-sans-serif,system-ui,sans-serif" font-size="11">Seen in 1 video · tags: agents, api</text>
  <rect x="36" y="312" width="100" height="24" rx="8" fill="#1e1b4b"/>
  <text x="48" y="328" fill="#c4b5fd" font-family="ui-sans-serif,system-ui,sans-serif" font-size="10" font-weight="600">Watch Reel</text>
  <rect x="20" y="380" width="350" height="120" rx="16" fill="#0b1220" stroke="#1f2937"/>
  <text x="36" y="412" fill="#f3f4f6" font-family="ui-sans-serif,system-ui,sans-serif" font-size="15" font-weight="600">Another tool</text>
  <text x="36" y="434" fill="#6b7280" font-family="ui-sans-serif,system-ui,sans-serif" font-size="11">Extracted from transcript · deduped in DB</text>
  <text x="175" y="680" fill="#374151" font-family="ui-sans-serif,system-ui,sans-serif" font-size="10">Feed  mobile-first tool list</text>
</svg>
